<?xml version="1.0" standalone="no"?>
<!DOCTYPE svg PUBLIC "-//W3C//DTD SVG 20010904//EN"
 "http://www.w3.org/TR/2001/REC-SVG-20010904/DTD/svg10.dtd">
<svg version="1.0" xmlns="http://www.w3.org/2000/svg"
 width="743.000000pt" height="743.000000pt" viewBox="0 0 743.000000 743.000000"
 preserveAspectRatio="xMidYMid meet">
<metadata>
Created by potrace 1.14, written by Peter Selinger 2001-2017
</metadata>
<g transform="translate(0.000000,743.000000) scale(0.100000,-0.100000)"
fill="#000000" stroke="none">
<path d="M3625 6836 c-39 -18 -131 -66 -205 -106 -74 -39 -529 -282 -1010
-538 -933 -496 -1233 -657 -1270 -683 -29 -19 -230 88 1830 -971 107 -56 316
-164 463 -241 255 -132 271 -139 312 -133 43 5 279 120 855 416 140 72 548
282 905 465 785 403 868 447 867 459 0 5 -69 46 -154 91 -84 45 -225 120 -313
167 -231 123 -1304 677 -1762 909 -237 120 -403 199 -420 199 -16 0 -60 -15
-98 -34z"/>
<path d="M6659 4886 c-138 -77 -442 -258 -474 -282 -20 -15 -20 -28 -23 -1400
l-2 -1386 272 140 c150 78 291 151 314 163 l41 23 6 395 c9 497 7 2228 -1
2337 l-7 80 -126 -70z"/>
<path d="M1086 4673 c-11 -67 -7 -202 8 -236 18 -45 68 -86 183 -150 117 -66
1013 -543 1412 -753 155 -82 301 -164 322 -182 l39 -34 0 -186 c0 -103 -5
-215 -10 -250 -14 -101 -74 -162 -157 -162 -42 0 -63 10 -708 348 -599 313
-1010 522 -1028 522 -9 0 -23 -7 -31 -16 -14 -14 -16 -91 -15 -707 1 -381 4
-752 8 -826 l6 -133 155 -85 c85 -47 560 -296 1055 -555 495 -259 1005 -526
1133 -594 128 -68 242 -124 254 -124 11 0 138 60 281 134 371 189 1163 598
1283 662 l101 54 6 502 c12 879 9 2232 -5 2246 -7 7 -29 12 -49 12 -43 0 -103
-30 -754 -375 -237 -125 -497 -262 -579 -304 -149 -75 -150 -76 -228 -76 l-78
0 -693 348 c-380 191 -955 482 -1277 646 -322 164 -595 301 -607 305 -17 6
-21 1 -27 -31z"/>
</g>
</svg>
