<!--
- Copyright (C) 2022 Prevter
-
- This program is free software: you can redistribute it and/or modify
- it under the terms of the GNU General Public License as published by
- the Free Software Foundation, either version 3 of the License, or
- (at your option) any later version.
-
- This program is distributed in the hope that it will be useful,
- but WITHOUT ANY WARRANTY; without even the implied warranty of
- MERCHANTABILITY or FITNESS FOR A PARTICULAR PURPOSE. See the
- GNU General Public License for more details.
-
- You should have received a copy of the GNU General Public License
- along with this program. If not, see <https://www.gnu.org/licenses/>.
-->
<?xml version="1.0" encoding="UTF-8" standalone="no"?>
<svg
   xmlns:dc="http://purl.org/dc/elements/1.1/"
   xmlns:cc="http://creativecommons.org/ns#"
   xmlns:rdf="http://www.w3.org/1999/02/22-rdf-syntax-ns#"
   xmlns:svg="http://www.w3.org/2000/svg"
   xmlns="http://www.w3.org/2000/svg"
   xmlns:sodipodi="http://sodipodi.sourceforge.net/DTD/sodipodi-0.dtd"
   xmlns:inkscape="http://www.inkscape.org/namespaces/inkscape"
   width="190.64133mm"
   height="196.66898mm"
   viewBox="0 0 190.64133 196.66898"
   version="1.1"
   id="svg8"
   sodipodi:docname="Icon.svg"
   inkscape:version="1.0.2-2 (e86c870879, 2021-01-15)">
  <defs
     id="defs2" />
  <sodipodi:namedview
     id="base"
     pagecolor="#ffffff"
     bordercolor="#666666"
     borderopacity="1.0"
     inkscape:pageopacity="0.0"
     inkscape:pageshadow="2"
     inkscape:zoom="0.59019938"
     inkscape:cx="207.02404"
     inkscape:cy="428.6052"
     inkscape:document-units="mm"
     inkscape:current-layer="layer4"
     inkscape:document-rotation="0"
     showgrid="false"
     inkscape:window-width="1920"
     inkscape:window-height="1009"
     inkscape:window-x="-8"
     inkscape:window-y="-8"
     inkscape:window-maximized="1" />
  <metadata
     id="metadata5">
    <rdf:RDF>
      <cc:Work
         rdf:about="">
        <dc:format>image/svg+xml</dc:format>
        <dc:type
           rdf:resource="http://purl.org/dc/dcmitype/StillImage" />
      </cc:Work>
    </rdf:RDF>
  </metadata>
  <g
     inkscape:groupmode="layer"
     id="layer4"
     inkscape:label="Backbackground"
     transform="translate(-5.819115,-7.9662793)" />
  <g
     inkscape:groupmode="layer"
     id="layer3"
     inkscape:label="Background"
     transform="translate(-5.819115,-7.9662793)">
    <path
       style="fill:#ff3939;stroke:none;stroke-width:0.264583px;stroke-linecap:butt;stroke-linejoin:miter;stroke-opacity:1"
       d="m 20.509488,59.62321 -4.034654,93.91777 84.962706,43.62824 88.75154,-44.41276 V 61.976759 l -87.48357,-47.07812 z"
       id="path904" />
  </g>
  <g
     inkscape:label="Inside"
     inkscape:groupmode="layer"
     id="layer1"
     style="display:inline"
     transform="translate(-5.819115,-7.9662793)">
    <path
       style="fill:#ff7777;stroke:#ff5959;stroke-width:2.11667;stroke-linecap:butt;stroke-linejoin:round;stroke-miterlimit:4;stroke-dasharray:none;stroke-opacity:1"
       d="m 37.053274,160.07641 56.696381,-29.79073 c 0,0 1.905254,-1.12073 2.577695,-3.53032 0.672444,-2.40958 0.448297,-90.499517 0.448297,-90.499517 0,0 0.168108,-4.42691 -3.025992,-6.108017 C 90.555555,28.466722 77.83519,22.302668 77.83519,22.302668 L 20.509488,59.623212 16.474834,153.54098 Z"
       id="path862"
       sodipodi:nodetypes="ccscscccc" />
    <path
       style="fill:#ff7777;stroke:#ff5959;stroke-width:2.11667;stroke-linecap:butt;stroke-linejoin:miter;stroke-miterlimit:4;stroke-dasharray:none;stroke-opacity:1"
       d="m 109.38394,81.589659 c 0,0 -4.2588,2.409585 -4.09069,8.629674 0.16811,6.220092 0.11207,85.063947 0.11207,85.063947 0,0 0.89659,7.50894 7.11668,8.68571 6.22009,1.17677 18.71631,2.35355 18.71631,2.35355 l 58.95077,-33.56608 V 61.976759 l -19.38875,-12.664329 -8.48045,4.338518 z"
       id="path900" />
  </g>
  <g
     inkscape:groupmode="layer"
     id="layer2"
     inkscape:label="Borders"
     transform="translate(-5.819115,-7.9662793)">
    <path
       style="opacity:0.997;fill:#ffffff;fill-opacity:1;stroke:#ffffff;stroke-width:2.11667;stroke-linecap:round;stroke-linejoin:round;stroke-miterlimit:4;stroke-dasharray:none;stroke-dashoffset:64.0381;stroke-opacity:1;paint-order:fill markers stroke"
       d="m 98.064347,203.24459 c -1.17058,-0.3152 -82.637932,-42.89501 -85.007762,-44.43024 -2.646224,-1.71428 -4.724996,-4.49389 -5.501207,-7.35587 -0.624428,-2.30235 -0.823542,-22.81132 -0.572156,-58.932513 0.240902,-34.61454 0.170794,-32.94704 1.495093,-35.56042 1.0457063,-2.0636 2.27664,-3.03057 6.931817,-5.44533 6.850307,-3.55343 27.576273,-14.47414 53.300879,-28.08474 15.686636,-8.29962 24.520116,-12.85009 25.627666,-13.2018 4.15207,-1.3185297 9.547763,-1.5688897 12.580423,-0.5837397 0.77094,0.25044 3.75328,1.7199397 6.62741,3.2655597 7.53025,4.04954 30.54742,16.1667 55.71139,29.32871 12.00372,6.27854 22.17143,11.68766 22.59492,12.02027 1.13329,0.89006 2.47425,3.0195 3.04575,4.83663 l 0.50194,1.59593 v 45.053623 c 0,49.48087 0.10266,45.88391 -1.39232,48.7843 -1.27288,2.46949 -2.82417,3.82169 -6.31509,5.50463 -6.23,3.00341 -49.85386,25.97387 -76.13787,40.09095 -5.46621,2.93588 -7.05757,3.46914 -10.28281,3.44572 -1.11713,-0.008 -2.560763,-0.15737 -3.208073,-0.33167 z m 13.331863,-16.86377 c 5.02648,-2.58607 14.88844,-7.65135 21.91546,-11.25618 7.02703,-3.60482 12.90249,-6.71275 13.05659,-6.90649 0.22157,-0.27857 0.28019,-8.02522 0.28019,-37.03053 V 94.509367 l -0.57843,-0.5434 c -0.49281,-0.46297 -0.79971,-0.54341 -2.07336,-0.54341 -1.7102,0 0.52844,-1.11359 -26.18994,13.027953 -13.67628,7.2386 -13.71533,7.25738 -15.08101,7.25738 -1.35071,0 -1.5563,-0.0944 -15.203243,-6.9797 C 63.32686,94.520727 40.19001,82.775347 36.300673,80.725537 c -5.459032,-2.87708 -5.646838,-2.81879 -5.886159,1.8268 -0.222549,4.32 0.01675,5.31322 1.670584,6.93429 1.097042,1.0753 2.622622,1.96677 11.126581,6.50177 23.661925,12.618433 29.838607,15.888953 33.951068,17.976903 2.40398,1.22054 4.60643,2.48449 4.89434,2.8088 l 0.52346,0.58964 -0.078,5.73705 c -0.0739,5.43959 -0.10412,5.78628 -0.58239,6.6864 -0.58302,1.09727 -1.24693,1.59609 -2.36603,1.77769 -0.6831,0.11086 -1.25794,-0.114 -4.114396,-1.60939 -13.398534,-7.01431 -34.239941,-17.85956 -37.404169,-19.46402 -3.157178,-1.60089 -4.003741,-1.93897 -4.855279,-1.93897 -0.876509,0 -1.118497,0.10355 -1.611662,0.68965 l -0.580292,0.68963 v 22.24263 c 0,17.45338 0.06033,22.31986 0.280183,22.6013 0.154101,0.19728 8.853824,4.81991 19.332715,10.27253 20.718841,10.7809 46.20364,24.13062 48.52791,25.42042 1.142283,0.63388 1.637423,0.78751 2.292463,0.71131 0.50728,-0.059 4.42565,-1.9443 9.97456,-4.79915 z m 72.12449,-37.7239 c 0.4443,-0.4388 0.44881,-0.77909 0.5069,-38.23534 0.0433,-27.917543 -0.008,-37.872623 -0.19556,-38.098843 -0.13979,-0.16844 -0.50272,-0.30625 -0.80652,-0.30625 -0.31584,0 -4.1917,2.13555 -9.05154,4.98728 -7.07236,4.15002 -8.55546,5.10585 -8.83439,5.69359 -0.29335,0.61813 -0.3352,5.38346 -0.3352,38.165843 v 37.45954 l 9.134,-4.61154 c 5.02371,-2.53635 9.33574,-4.81077 9.58231,-5.05428 z M 119.19856,87.487837 c 25.68733,-13.15016 47.54904,-24.38567 50.92363,-26.17145 3.2022,-1.69456 3.66158,-2.11005 3.22823,-2.91976 -0.12465,-0.23292 -15.50417,-8.29376 -35.37167,-18.53931 -30.67172,-15.8172 -35.30037,-18.14003 -36.32234,-18.22789 -1.31297,-0.11289 0.79238,-1.19483 -43.209975,22.20557 -23.695707,12.60135 -26.374947,14.05027 -26.953726,14.57644 -0.559874,0.50899 -0.651168,1.10088 -0.224147,1.45325 0.154101,0.12717 4.869603,2.5963 10.478892,5.48697 11.119596,5.73032 47.160933,24.26284 54.355743,27.94983 l 4.482953,2.29728 1.5772,-0.0987 c 1.56406,-0.0979 1.70602,-0.16468 17.03521,-8.01219 z"
       id="path874" />
  </g>
</svg>
